<svg xmlns="http://www.w3.org/2000/svg" data-updated-at="2026-09-13T00:08:00+09:00">
<symbol id="menu" data-updated-at="2026-09-13T00:08:00+09:00" viewBox="0 0 24 24" data-label="메뉴" data-category="탐색"><path d="M4 7h16M4 12h16M4 17h16"/></symbol>
<symbol id="panel-left" data-updated-at="2026-09-13T00:08:00+09:00" viewBox="0 0 24 24" data-label="왼쪽 패널" data-category="탐색"><rect x="3" y="4" width="18" height="16" rx="2"/><path d="M9 4v16"/></symbol>
<symbol id="home" data-updated-at="2026-09-13T00:08:00+09:00" viewBox="0 0 24 24" data-label="홈" data-category="탐색"><path d="m3 11 9-8 9 8v10h-6v-6H9v6H3Z"/></symbol>
<symbol id="dashboard" data-updated-at="2026-09-13T00:08:00+09:00" viewBox="0 0 24 24" data-label="대시보드" data-category="탐색"><rect x="3" y="3" width="7" height="8" rx="1"/><rect x="14" y="3" width="7" height="5" rx="1"/><rect x="14" y="12" width="7" height="9" rx="1"/><rect x="3" y="15" width="7" height="6" rx="1"/></symbol>
<symbol id="grid" data-updated-at="2026-09-13T00:08:00+09:00" viewBox="0 0 24 24" data-label="그리드" data-category="탐색"><rect x="3" y="3" width="7" height="7" rx="1"/><rect x="14" y="3" width="7" height="7" rx="1"/><rect x="3" y="14" width="7" height="7" rx="1"/><rect x="14" y="14" width="7" height="7" rx="1"/></symbol>
<symbol id="list" data-updated-at="2026-09-13T00:08:00+09:00" viewBox="0 0 24 24" data-label="목록" data-category="탐색"><path d="M8 6h13M8 12h13M8 18h13M3 6h.01M3 12h.01M3 18h.01"/></symbol>
<symbol id="more-horizontal" data-updated-at="2026-09-13T00:08:00+09:00" viewBox="0 0 24 24" data-label="더보기" data-category="탐색"><circle cx="5" cy="12" r="1"/><circle cx="12" cy="12" r="1"/><circle cx="19" cy="12" r="1"/></symbol>
<symbol id="more-vertical" data-updated-at="2026-09-13T00:08:00+09:00" viewBox="0 0 24 24" data-label="세로 더보기" data-category="탐색"><circle cx="12" cy="5" r="1"/><circle cx="12" cy="12" r="1"/><circle cx="12" cy="19" r="1"/></symbol>
<symbol id="chevron-left" data-updated-at="2026-09-13T00:08:00+09:00" viewBox="0 0 24 24" data-label="이전" data-category="방향"><path d="m15 18-6-6 6-6"/></symbol>
<symbol id="chevron-right" data-updated-at="2026-09-13T00:08:00+09:00" viewBox="0 0 24 24" data-label="다음" data-category="방향"><path d="m9 18 6-6-6-6"/></symbol>
<symbol id="chevron-up" data-updated-at="2026-09-13T00:08:00+09:00" viewBox="0 0 24 24" data-label="위로 펼침" data-category="방향"><path d="m6 15 6-6 6 6"/></symbol>
<symbol id="chevron-down" data-updated-at="2026-09-13T00:08:00+09:00" viewBox="0 0 24 24" data-label="아래로 펼침" data-category="방향"><path d="m6 9 6 6 6-6"/></symbol>
<symbol id="arrow-left" data-updated-at="2026-09-13T00:08:00+09:00" viewBox="0 0 24 24" data-label="왼쪽 화살표" data-category="방향"><path d="M19 12H5m6-6-6 6 6 6"/></symbol>
<symbol id="arrow-right" data-updated-at="2026-09-13T00:08:00+09:00" viewBox="0 0 24 24" data-label="오른쪽 화살표" data-category="방향"><path d="M5 12h14m-6-6 6 6-6 6"/></symbol>
<symbol id="arrow-up" data-updated-at="2026-09-13T00:08:00+09:00" viewBox="0 0 24 24" data-label="위 화살표" data-category="방향"><path d="M12 19V5m-6 6 6-6 6 6"/></symbol>
<symbol id="arrow-down" data-updated-at="2026-09-13T00:08:00+09:00" viewBox="0 0 24 24" data-label="아래 화살표" data-category="방향"><path d="M12 5v14m6-6-6 6-6-6"/></symbol>
<symbol id="expand" data-updated-at="2026-09-13T00:08:00+09:00" viewBox="0 0 24 24" data-label="확대" data-category="방향"><path d="M8 3H3v5M16 3h5v5M8 21H3v-5M16 21h5v-5"/></symbol>
<symbol id="collapse" data-updated-at="2026-09-13T00:08:00+09:00" viewBox="0 0 24 24" data-label="축소" data-category="방향"><path d="M3 8h5V3M21 8h-5V3M3 16h5v5M21 16h-5v5"/></symbol>
<symbol id="plus" data-updated-at="2026-09-13T00:08:00+09:00" viewBox="0 0 24 24" data-label="추가" data-category="작업"><path d="M12 5v14M5 12h14"/></symbol>
<symbol id="minus" data-updated-at="2026-09-13T00:08:00+09:00" viewBox="0 0 24 24" data-label="빼기" data-category="작업"><path d="M5 12h14"/></symbol>
<symbol id="x" data-updated-at="2026-09-13T00:08:00+09:00" viewBox="0 0 24 24" data-label="닫기" data-category="작업"><path d="M18 6 6 18M6 6l12 12"/></symbol>
<symbol id="check" data-updated-at="2026-09-13T00:08:00+09:00" viewBox="0 0 24 24" data-label="확인" data-category="작업"><path d="M20 6 9 17l-5-5"/></symbol>
<symbol id="search" data-updated-at="2026-09-13T00:08:00+09:00" viewBox="0 0 24 24" data-label="검색" data-category="작업"><circle cx="11" cy="11" r="7"/><path d="m21 21-4.3-4.3"/></symbol>
<symbol id="filter" data-updated-at="2026-09-13T00:08:00+09:00" viewBox="0 0 24 24" data-label="필터" data-category="작업"><path d="M22 3H2l8 9v7l4 2v-9Z"/></symbol>
<symbol id="refresh" data-updated-at="2026-09-15T09:31:56+09:00" viewBox="0 0 24 24" data-label="새로고침" data-category="작업"><path d="M21 12a9 9 0 0 0-9-9 9.75 9.75 0 0 0-6.74 2.74L3 8"/><path d="M3 3v5h5"/><path d="M3 12a9 9 0 0 0 9 9 9.75 9.75 0 0 0 6.74-2.74L21 16"/><path d="M16 16h5v5"/></symbol>
<symbol id="undo" data-updated-at="2026-09-13T00:08:00+09:00" viewBox="0 0 24 24" data-label="실행 취소" data-category="작업"><path d="m9 7-5 5 5 5M4 12h9a6 6 0 0 1 6 6"/></symbol>
<symbol id="redo" data-updated-at="2026-09-13T00:08:00+09:00" viewBox="0 0 24 24" data-label="다시 실행" data-category="작업"><path d="m15 7 5 5-5 5M20 12h-9a6 6 0 0 0-6 6"/></symbol>
<symbol id="edit" data-updated-at="2026-09-13T00:08:00+09:00" viewBox="0 0 24 24" data-label="수정" data-category="작업"><path d="M12 20h9M16.5 3.5a2.1 2.1 0 0 1 3 3L7 19l-4 1 1-4Z"/></symbol>
<symbol id="trash" data-updated-at="2026-09-13T00:08:00+09:00" viewBox="0 0 24 24" data-label="삭제" data-category="작업"><path d="M3 6h18M8 6V4h8v2m3 0-1 15H6L5 6M10 11v6M14 11v6"/></symbol>
<symbol id="copy" data-updated-at="2026-09-13T00:08:00+09:00" viewBox="0 0 24 24" data-label="복사" data-category="작업"><rect x="8" y="8" width="12" height="12" rx="2"/><path d="M16 8V4H4v12h4"/></symbol>
<symbol id="save" data-updated-at="2026-09-13T00:08:00+09:00" viewBox="0 0 24 24" data-label="저장" data-category="작업"><path d="M4 3h14l2 2v16H4Z"/><path d="M8 3v6h8V3M8 21v-7h8v7"/></symbol>
<symbol id="download" data-updated-at="2026-09-13T00:08:00+09:00" viewBox="0 0 24 24" data-label="다운로드" data-category="파일"><path d="M12 3v12m-5-5 5 5 5-5M4 20h16"/></symbol>
<symbol id="upload" data-updated-at="2026-09-13T00:08:00+09:00" viewBox="0 0 24 24" data-label="업로드" data-category="파일"><path d="M12 16V4m-5 5 5-5 5 5M4 20h16"/></symbol>
<symbol id="file" data-updated-at="2026-09-13T00:08:00+09:00" viewBox="0 0 24 24" data-label="파일" data-category="파일"><path d="M6 2h8l4 4v16H6Z"/><path d="M14 2v5h5"/></symbol>
<symbol id="file-text" data-updated-at="2026-09-13T00:08:00+09:00" viewBox="0 0 24 24" data-label="문서" data-category="파일"><path d="M6 2h8l4 4v16H6Z"/><path d="M14 2v5h5M9 13h6M9 17h6"/></symbol>
<symbol id="folder" data-updated-at="2026-09-13T00:08:00+09:00" viewBox="0 0 24 24" data-label="폴더" data-category="파일"><path d="M3 5h6l2 3h10v11H3Z"/></symbol>
<symbol id="folder-open" data-updated-at="2026-09-13T00:08:00+09:00" viewBox="0 0 24 24" data-label="열린 폴더" data-category="파일"><path d="M3 7V4h6l2 3h10v3M3 10h19l-3 9H5Z"/></symbol>
<symbol id="archive" data-updated-at="2026-09-13T00:08:00+09:00" viewBox="0 0 24 24" data-label="보관" data-category="파일"><rect x="3" y="5" width="18" height="4" rx="1"/><path d="M5 9v11h14V9M10 13h4"/></symbol>
<symbol id="printer" data-updated-at="2026-09-13T00:08:00+09:00" viewBox="0 0 24 24" data-label="인쇄" data-category="파일"><path d="M6 9V3h12v6M6 18H4V9h16v9h-2"/><rect x="6" y="14" width="12" height="8"/></symbol>
<symbol id="paperclip" data-updated-at="2026-09-13T00:08:00+09:00" viewBox="0 0 24 24" data-label="첨부" data-category="파일"><path d="m21 11-8.5 8.5a6 6 0 0 1-8.5-8.5l9-9a4 4 0 0 1 5.7 5.7l-9 9a2 2 0 0 1-2.8-2.8l8.5-8.5"/></symbol>
<symbol id="image" data-updated-at="2026-09-13T00:08:00+09:00" viewBox="0 0 24 24" data-label="이미지" data-category="파일"><rect x="3" y="3" width="18" height="18" rx="2"/><circle cx="8" cy="8" r="2"/><path d="m21 15-5-5L5 21"/></symbol>
<symbol id="user" data-updated-at="2026-09-13T00:08:00+09:00" viewBox="0 0 24 24" data-label="사용자" data-category="사용자"><circle cx="12" cy="8" r="4"/><path d="M4 21v-2a6 6 0 0 1 6-6h4a6 6 0 0 1 6 6v2"/></symbol>
<symbol id="users" data-updated-at="2026-09-13T00:08:00+09:00" viewBox="0 0 24 24" data-label="사용자 그룹" data-category="사용자"><circle cx="9" cy="8" r="4"/><path d="M2 21v-2a4 4 0 0 1 4-4h6a4 4 0 0 1 4 4v2M17 11a4 4 0 0 0 0-7M22 21v-2a4 4 0 0 0-3-4"/></symbol>
<symbol id="user-plus" data-updated-at="2026-09-13T00:08:00+09:00" viewBox="0 0 24 24" data-label="사용자 추가" data-category="사용자"><circle cx="9" cy="8" r="4"/><path d="M2 21v-2a6 6 0 0 1 6-6h2M19 10v6M16 13h6"/></symbol>
<symbol id="user-check" data-updated-at="2026-09-13T00:08:00+09:00" viewBox="0 0 24 24" data-label="사용자 승인" data-category="사용자"><circle cx="9" cy="8" r="4"/><path d="M2 21v-2a6 6 0 0 1 6-6h2m5 2 2 2 4-5"/></symbol>
<symbol id="badge-id" data-updated-at="2026-09-13T00:08:00+09:00" viewBox="0 0 24 24" data-label="사원증" data-category="사용자"><rect x="4" y="3" width="16" height="18" rx="2"/><circle cx="9" cy="10" r="2"/><path d="M7 16c1-2 3-2 4 0M14 9h3M14 13h3"/></symbol>
<symbol id="lock" data-updated-at="2026-09-13T00:08:00+09:00" viewBox="0 0 24 24" data-label="잠금" data-category="보안"><rect x="4" y="10" width="16" height="11" rx="2"/><path d="M8 10V7a4 4 0 0 1 8 0v3M12 14v3"/></symbol>
<symbol id="unlock" data-updated-at="2026-09-13T00:08:00+09:00" viewBox="0 0 24 24" data-label="잠금 해제" data-category="보안"><rect x="4" y="10" width="16" height="11" rx="2"/><path d="M8 10V7a4 4 0 0 1 7-2M12 14v3"/></symbol>
<symbol id="key" data-updated-at="2026-09-13T00:08:00+09:00" viewBox="0 0 24 24" data-label="키" data-category="보안"><circle cx="8" cy="15" r="4"/><path d="m11 12 9-9M16 7l3 3M14 9l3 3"/></symbol>
<symbol id="shield" data-updated-at="2026-09-13T00:08:00+09:00" viewBox="0 0 24 24" data-label="보안" data-category="보안"><path d="M12 2 4 5v6c0 5 3.5 9 8 11 4.5-2 8-6 8-11V5Z"/></symbol>
<symbol id="shield-check" data-updated-at="2026-09-13T00:08:00+09:00" viewBox="0 0 24 24" data-label="보안 승인" data-category="보안"><path d="M12 2 4 5v6c0 5 3.5 9 8 11 4.5-2 8-6 8-11V5Z"/><path d="m9 12 2 2 4-4"/></symbol>
<symbol id="eye" data-updated-at="2026-09-13T00:08:00+09:00" viewBox="0 0 24 24" data-label="보기" data-category="보안"><path d="M2 12s4-7 10-7 10 7 10 7-4 7-10 7S2 12 2 12Z"/><circle cx="12" cy="12" r="3"/></symbol>
<symbol id="eye-off" data-updated-at="2026-09-13T00:08:00+09:00" viewBox="0 0 24 24" data-label="숨기기" data-category="보안"><path d="m3 3 18 18M10.6 5.2A10 10 0 0 1 12 5c6 0 10 7 10 7a17 17 0 0 1-2 2.8M6.5 6.5C3.7 8.4 2 12 2 12s4 7 10 7a10 10 0 0 0 4-.8M9.9 9.9a3 3 0 0 0 4.2 4.2"/></symbol>
<symbol id="settings" data-updated-at="2026-09-13T00:08:00+09:00" viewBox="0 0 24 24" data-label="설정" data-category="시스템"><circle cx="12" cy="12" r="3"/><path d="M19 12a7 7 0 0 0-.1-1l2-2-2-3-2.7 1a8 8 0 0 0-1.8-1L14 3h-4l-.4 3a8 8 0 0 0-1.8 1L5 6 3 9l2 2a7 7 0 0 0 0 2l-2 2 2 3 2.8-1a8 8 0 0 0 1.8 1l.4 3h4l.4-3a8 8 0 0 0 1.8-1l2.8 1 2-3-2-2a7 7 0 0 0 .1-1Z"/></symbol>
<symbol id="sliders" data-updated-at="2026-09-13T00:08:00+09:00" viewBox="0 0 24 24" data-label="조정" data-category="시스템"><path d="M4 6h16M4 12h16M4 18h16"/><circle cx="9" cy="6" r="2"/><circle cx="15" cy="12" r="2"/><circle cx="11" cy="18" r="2"/></symbol>
<symbol id="power" data-updated-at="2026-09-13T00:08:00+09:00" viewBox="0 0 24 24" data-label="전원" data-category="시스템"><path d="M12 2v10M6.3 5.6a9 9 0 1 0 11.4 0"/></symbol>
<symbol id="log-in" data-updated-at="2026-09-13T00:08:00+09:00" viewBox="0 0 24 24" data-label="로그인" data-category="시스템"><path d="M14 8l4 4-4 4M18 12H7M10 4H4v16h6"/></symbol>
<symbol id="log-out" data-updated-at="2026-09-13T00:08:00+09:00" viewBox="0 0 24 24" data-label="로그아웃" data-category="시스템"><path d="m10 8-4 4 4 4M6 12h11M14 4h6v16h-6"/></symbol>
<symbol id="help-circle" data-updated-at="2026-09-13T00:08:00+09:00" viewBox="0 0 24 24" data-label="도움말" data-category="상태"><circle cx="12" cy="12" r="9"/><path d="M9.8 9a2.3 2.3 0 1 1 3.3 2.1c-.8.4-1.1.9-1.1 1.9M12 17h.01"/></symbol>
<symbol id="info" data-updated-at="2026-09-13T00:08:00+09:00" viewBox="0 0 24 24" data-label="정보" data-category="상태"><circle cx="12" cy="12" r="10"/><path d="M12 11v5M12 8h.01"/></symbol>
<symbol id="check-circle" data-updated-at="2026-09-13T00:08:00+09:00" viewBox="0 0 24 24" data-label="완료" data-category="상태"><circle cx="12" cy="12" r="10"/><path d="m8 12 3 3 5-6"/></symbol>
<symbol id="x-circle" data-updated-at="2026-09-13T00:08:00+09:00" viewBox="0 0 24 24" data-label="오류" data-category="상태"><circle cx="12" cy="12" r="10"/><path d="m15 9-6 6M9 9l6 6"/></symbol>
<symbol id="alert-circle" data-updated-at="2026-09-13T00:08:00+09:00" viewBox="0 0 24 24" data-label="주의" data-category="상태"><circle cx="12" cy="12" r="10"/><path d="M12 7v6M12 17h.01"/></symbol>
<symbol id="alert-triangle" data-updated-at="2026-09-13T00:08:00+09:00" viewBox="0 0 24 24" data-label="경고" data-category="상태"><path d="M12 3 2.8 20h18.4Z"/><path d="M12 9v5M12 17.3h.01"/></symbol>
<symbol id="bell" data-updated-at="2026-09-13T00:08:00+09:00" viewBox="0 0 24 24" data-label="알림" data-category="상태"><path d="M18 8a6 6 0 0 0-12 0c0 7-3 7-3 9h18c0-2-3-2-3-9M10 21h4"/></symbol>
<symbol id="bell-off" data-updated-at="2026-09-13T00:08:00+09:00" viewBox="0 0 24 24" data-label="알림 끄기" data-category="상태"><path d="m3 3 18 18M18 8a6 6 0 0 0-9-5M6 8c0 7-3 7-3 9h14M10 21h4"/></symbol>
<symbol id="clock" data-updated-at="2026-09-13T00:08:00+09:00" viewBox="0 0 24 24" data-label="시간" data-category="일정"><circle cx="12" cy="12" r="9"/><path d="M12 7v5l3 2"/></symbol>
<symbol id="calendar" data-updated-at="2026-09-13T00:08:00+09:00" viewBox="0 0 24 24" data-label="달력" data-category="일정"><rect x="3" y="4" width="18" height="17" rx="2"/><path d="M8 2v4M16 2v4M3 9h18"/></symbol>
<symbol id="calendar-check" data-updated-at="2026-09-13T00:08:00+09:00" viewBox="0 0 24 24" data-label="일정 완료" data-category="일정"><rect x="3" y="4" width="18" height="17" rx="2"/><path d="M8 2v4M16 2v4M3 9h18m5 6 2 2 4-4"/></symbol>
<symbol id="history" data-updated-at="2026-09-13T00:08:00+09:00" viewBox="0 0 24 24" data-label="이력" data-category="일정"><path d="M3 12a9 9 0 1 0 3-6.7L3 8M3 3v5h5M12 7v5l4 2"/></symbol>
<symbol id="timer" data-updated-at="2026-09-13T00:08:00+09:00" viewBox="0 0 24 24" data-label="타이머" data-category="일정"><circle cx="12" cy="13" r="8"/><path d="M12 9v5M9 2h6M17 5l2-2"/></symbol>
<symbol id="mail" data-updated-at="2026-09-13T00:08:00+09:00" viewBox="0 0 24 24" data-label="메일" data-category="소통"><rect x="3" y="5" width="18" height="14" rx="2"/><path d="m3 7 9 6 9-6"/></symbol>
<symbol id="send" data-updated-at="2026-09-13T00:08:00+09:00" viewBox="0 0 24 24" data-label="보내기" data-category="소통"><path d="m3 3 18 9-18 9 4-9Zm4 9h14"/></symbol>
<symbol id="message" data-updated-at="2026-09-13T00:08:00+09:00" viewBox="0 0 24 24" data-label="메시지" data-category="소통"><path d="M4 4h16v13H8l-4 4Z"/></symbol>
<symbol id="phone" data-updated-at="2026-09-13T00:08:00+09:00" viewBox="0 0 24 24" data-label="전화" data-category="소통"><path d="M5 3h4l2 5-3 2a15 15 0 0 0 6 6l2-3 5 2v4c0 1-1 2-2 2A16 16 0 0 1 3 5c0-1 1-2 2-2Z"/></symbol>
<symbol id="megaphone" data-updated-at="2026-09-13T00:08:00+09:00" viewBox="0 0 24 24" data-label="공지" data-category="소통"><path d="M3 10v4h4l8 5V5l-8 5ZM7 14l2 6M19 8a5 5 0 0 1 0 8"/></symbol>
<symbol id="link" data-updated-at="2026-09-13T00:08:00+09:00" viewBox="0 0 24 24" data-label="링크" data-category="소통"><path d="M10 13a5 5 0 0 0 7 0l3-3a5 5 0 0 0-7-7l-2 2M14 11a5 5 0 0 0-7 0l-3 3a5 5 0 0 0 7 7l2-2"/></symbol>
<symbol id="external-link" data-updated-at="2026-09-13T00:08:00+09:00" viewBox="0 0 24 24" data-label="외부 링크" data-category="소통"><path d="M14 3h7v7M21 3l-10 10M18 13v8H3V6h8"/></symbol>
<symbol id="building" data-updated-at="2026-09-13T00:08:00+09:00" viewBox="0 0 24 24" data-label="건물" data-category="조직"><path d="M4 21V4h11v17M15 9h5v12M2 21h20M8 8h3M8 12h3M8 16h3"/></symbol>
<symbol id="hospital" data-updated-at="2026-09-13T00:08:00+09:00" viewBox="0 0 24 24" data-label="병원" data-category="의료"><path d="M4 22V4h16v18M2 22h20M9 8h6M12 5v6M8 15h3v7M13 15h3v7"/></symbol>
<symbol id="stethoscope" data-updated-at="2026-09-13T00:08:00+09:00" viewBox="0 0 24 24" data-label="청진기" data-category="의료"><path d="M6 3v6a5 5 0 0 0 10 0V3M4 3h4M14 3h4M11 14v2a5 5 0 0 0 10 0v-2"/><circle cx="21" cy="12" r="2"/></symbol>
<symbol id="heart-pulse" data-updated-at="2026-09-13T00:08:00+09:00" viewBox="0 0 24 24" data-label="심박" data-category="의료"><path d="M20.8 5.6a5.5 5.5 0 0 0-7.8 0L12 6.7l-1-1.1a5.5 5.5 0 0 0-7.8 7.8L12 22l8.8-8.6a5.5 5.5 0 0 0 0-7.8Z"/><path d="M3 12h4l2-3 3 7 2-4h7"/></symbol>
<symbol id="activity" data-updated-at="2026-09-13T00:08:00+09:00" viewBox="0 0 24 24" data-label="활력 징후" data-category="의료"><path d="M3 12h4l2-6 4 12 2-6h6"/></symbol>
<symbol id="pill" data-updated-at="2026-09-13T00:08:00+09:00" viewBox="0 0 24 24" data-label="약" data-category="의료"><path d="M8 20a5 5 0 0 1-4-8l8-8a5 5 0 0 1 8 7l-8 8a5 5 0 0 1-4 1ZM8 8l8 8"/></symbol>
<symbol id="syringe" data-updated-at="2026-09-13T00:08:00+09:00" viewBox="0 0 24 24" data-label="주사" data-category="의료"><path d="m14 4 6 6M17 2l5 5M12 6l6 6-8 8-6-6ZM2 22l4-4M7 11l6 6"/></symbol>
<symbol id="flask" data-updated-at="2026-09-13T00:08:00+09:00" viewBox="0 0 24 24" data-label="검사" data-category="의료"><path d="M9 3h6M10 3v7L4 20h16l-6-10V3M7 16h10"/></symbol>
<symbol id="thermometer" data-updated-at="2026-09-13T00:08:00+09:00" viewBox="0 0 24 24" data-label="체온" data-category="의료"><path d="M9 14V5a3 3 0 0 1 6 0v9a5 5 0 1 1-6 0Z"/><path d="M12 7v10"/></symbol>
<symbol id="bed" data-updated-at="2026-09-13T00:08:00+09:00" viewBox="0 0 24 24" data-label="병상" data-category="의료"><path d="M3 5v16M21 10v11M3 16h18M6 10h5a3 3 0 0 1 3 3v3H3v-3a3 3 0 0 1 3-3Z"/></symbol>
<symbol id="ambulance" data-updated-at="2026-09-13T00:08:00+09:00" viewBox="0 0 24 24" data-label="구급차" data-category="의료"><path d="M3 6h11v12H3ZM14 10h4l3 4v4h-7ZM6 9h4M8 7v4"/><circle cx="7" cy="19" r="2"/><circle cx="18" cy="19" r="2"/></symbol>
<symbol id="clipboard" data-updated-at="2026-09-13T00:08:00+09:00" viewBox="0 0 24 24" data-label="클립보드" data-category="데이터"><rect x="5" y="4" width="14" height="18" rx="2"/><rect x="8" y="2" width="8" height="4" rx="1"/></symbol>
<symbol id="clipboard-list" data-updated-at="2026-09-13T00:08:00+09:00" viewBox="0 0 24 24" data-label="업무 목록" data-category="데이터"><rect x="5" y="4" width="14" height="18" rx="2"/><rect x="8" y="2" width="8" height="4" rx="1"/><path d="M9 11h6M9 15h6M9 19h4"/></symbol>
<symbol id="table" data-updated-at="2026-09-13T00:08:00+09:00" viewBox="0 0 24 24" data-label="표" data-category="데이터"><rect x="3" y="4" width="18" height="16" rx="2"/><path d="M3 9h18M9 9v11M15 9v11"/></symbol>
<symbol id="database" data-updated-at="2026-09-13T00:08:00+09:00" viewBox="0 0 24 24" data-label="데이터베이스" data-category="데이터"><ellipse cx="12" cy="5" rx="8" ry="3"/><path d="M4 5v7c0 2 4 3 8 3s8-1 8-3V5M4 12v7c0 2 4 3 8 3s8-1 8-3v-7"/></symbol>
<symbol id="bar-chart" data-updated-at="2026-09-13T00:08:00+09:00" viewBox="0 0 24 24" data-label="막대 차트" data-category="데이터"><path d="M4 20V10h4v10M10 20V4h4v16M16 20v-7h4v7M2 20h20"/></symbol>
<symbol id="line-chart" data-updated-at="2026-09-13T00:08:00+09:00" viewBox="0 0 24 24" data-label="선 차트" data-category="데이터"><path d="M3 3v18h18M6 16l4-5 4 3 5-8"/></symbol>
<symbol id="pie-chart" data-updated-at="2026-09-13T00:08:00+09:00" viewBox="0 0 24 24" data-label="원형 차트" data-category="데이터"><path d="M11 3a9 9 0 1 0 9 9h-9Z"/><path d="M14 3v6h6a8 8 0 0 0-6-6Z"/></symbol>
<symbol id="trend-up" data-updated-at="2026-09-13T00:08:00+09:00" viewBox="0 0 24 24" data-label="상승" data-category="데이터"><path d="m3 17 6-6 4 4 8-9M15 6h6v6"/></symbol>
<symbol id="trend-down" data-updated-at="2026-09-13T00:08:00+09:00" viewBox="0 0 24 24" data-label="하락" data-category="데이터"><path d="m3 7 6 6 4-4 8 9M15 18h6v-6"/></symbol>
<symbol id="wifi" data-updated-at="2026-09-13T00:08:00+09:00" viewBox="0 0 24 24" data-label="네트워크" data-category="시스템"><path d="M3 8a14 14 0 0 1 18 0M6 12a9 9 0 0 1 12 0M9 16a4 4 0 0 1 6 0M12 20h.01"/></symbol>
<symbol id="server" data-updated-at="2026-09-13T00:08:00+09:00" viewBox="0 0 24 24" data-label="서버" data-category="시스템"><rect x="3" y="3" width="18" height="7" rx="2"/><rect x="3" y="14" width="18" height="7" rx="2"/><path d="M7 6h.01M7 17h.01M11 6h7M11 17h7"/></symbol>
<symbol id="monitor" data-updated-at="2026-09-13T00:08:00+09:00" viewBox="0 0 24 24" data-label="모니터" data-category="시스템"><rect x="3" y="3" width="18" height="14" rx="2"/><path d="M8 21h8M12 17v4"/></symbol>
<symbol id="smartphone" data-updated-at="2026-09-13T00:08:00+09:00" viewBox="0 0 24 24" data-label="모바일" data-category="시스템"><rect x="6" y="2" width="12" height="20" rx="2"/><path d="M10 5h4M11 19h2"/></symbol>
<symbol id="sun" data-updated-at="2026-09-13T00:08:00+09:00" viewBox="0 0 24 24" data-label="라이트 모드" data-category="테마"><circle cx="12" cy="12" r="4"/><path d="M12 2v2M12 20v2M4.9 4.9l1.4 1.4M17.7 17.7l1.4 1.4M2 12h2M20 12h2M4.9 19.1l1.4-1.4M17.7 6.3l1.4-1.4"/></symbol>
<symbol id="moon" data-updated-at="2026-09-13T00:08:00+09:00" viewBox="0 0 24 24" data-label="다크 모드" data-category="테마"><path d="M20 14.5A8.5 8.5 0 1 1 9.5 4 7 7 0 0 0 20 14.5Z"/></symbol>
<symbol id="palette" data-updated-at="2026-09-13T00:08:00+09:00" viewBox="0 0 24 24" data-label="색상 테마" data-category="테마"><path d="M12 3a9 9 0 0 0 0 18h2a2 2 0 0 0 0-4h-1a2 2 0 0 1 0-4h8a9 9 0 0 0-9-10Z"/><circle cx="7" cy="10" r="1"/><circle cx="9" cy="6" r="1"/><circle cx="14" cy="6" r="1"/></symbol>
<symbol id="star" data-updated-at="2026-09-13T00:08:00+09:00" viewBox="0 0 24 24" data-label="즐겨찾기" data-category="상태"><path d="m12 3 2.8 5.7 6.2.9-4.5 4.4 1.1 6.2-5.6-3-5.6 3 1.1-6.2L3 9.6l6.2-.9Z"/></symbol>
<symbol id="bookmark" data-updated-at="2026-09-13T00:08:00+09:00" viewBox="0 0 24 24" data-label="북마크" data-category="상태"><path d="M6 3h12v19l-6-4-6 4Z"/></symbol>
<symbol id="tag" data-updated-at="2026-09-13T00:08:00+09:00" viewBox="0 0 24 24" data-label="태그" data-category="데이터"><path d="M3 12V4h8l10 10-7 7Z"/><circle cx="8" cy="8" r="1"/></symbol>
<symbol id="map-pin" data-updated-at="2026-09-13T00:08:00+09:00" viewBox="0 0 24 24" data-label="위치" data-category="조직"><path d="M20 10c0 5-8 12-8 12S4 15 4 10a8 8 0 1 1 16 0Z"/><circle cx="12" cy="10" r="3"/></symbol>
<symbol id="briefcase" data-updated-at="2026-09-13T00:08:00+09:00" viewBox="0 0 24 24" data-label="업무" data-category="조직"><rect x="3" y="7" width="18" height="13" rx="2"/><path d="M8 7V4h8v3M3 12h18M10 12v2h4v-2"/></symbol>
<symbol id="award" data-updated-at="2026-09-13T00:08:00+09:00" viewBox="0 0 24 24" data-label="인증" data-category="상태"><circle cx="12" cy="8" r="6"/><path d="m8 13-2 9 6-3 6 3-2-9"/></symbol>
<symbol id="flag" data-updated-at="2026-09-13T00:08:00+09:00" viewBox="0 0 24 24" data-label="표시" data-category="상태"><path d="M5 22V3m0 1h12l-2 4 2 4H5"/></symbol>
<symbol id="ban" data-updated-at="2026-09-13T00:08:00+09:00" viewBox="0 0 24 24" data-label="금지" data-category="상태"><circle cx="12" cy="12" r="9"/><path d="m5.6 5.6 12.8 12.8"/></symbol>
</svg>
